<svg width="29" height="29" viewBox="0 0 29 29" fill="none" xmlns="http://www.w3.org/2000/svg">
<path d="M20.9297 14.25C20.9297 18.1309 20.1422 21.6224 18.8898 24.1271C17.6241 26.6585 15.958 28.0547 14.25 28.0547C12.542 28.0547 10.8759 26.6585 9.61016 24.1271C8.35778 21.6224 7.57031 18.1309 7.57031 14.25C7.57031 10.3691 8.35778 6.87765 9.61016 4.37288C10.8759 1.84147 12.542 0.445312 14.25 0.445312C15.958 0.445312 17.6241 1.84147 18.8898 4.37288C20.1422 6.87765 20.9297 10.3691 20.9297 14.25Z" stroke="#1B2436" style="stroke:#1B2436;stroke:color(display-p3 0.1059 0.1412 0.2118);stroke-opacity:1;" stroke-width="0.890625"/>
<path d="M17.3672 14.25C17.3672 18.1596 16.9706 21.6841 16.3371 24.2183C16.0194 25.4888 15.6483 26.4854 15.2533 27.1536C14.8407 27.8516 14.4872 28.0547 14.25 28.0547C14.0128 28.0547 13.6593 27.8516 13.2467 27.1536C12.8517 26.4854 12.4806 25.4888 12.1629 24.2183C11.5294 21.6841 11.1328 18.1596 11.1328 14.25C11.1328 10.3404 11.5294 6.8159 12.1629 4.28173C12.4806 3.01122 12.8517 2.01465 13.2467 1.34642C13.6593 0.64839 14.0128 0.445312 14.25 0.445312C14.4872 0.445312 14.8407 0.64839 15.2533 1.34642C15.6483 2.01465 16.0194 3.01122 16.3371 4.28173C16.9706 6.8159 17.3672 10.3404 17.3672 14.25Z" stroke="#1B2436" style="stroke:#1B2436;stroke:color(display-p3 0.1059 0.1412 0.2118);stroke-opacity:1;" stroke-width="0.890625"/>
<path d="M24.4922 14.25C24.4922 18.098 23.3218 21.5646 21.451 24.0591C19.5802 26.5535 17.0297 28.0547 14.25 28.0547C11.4703 28.0547 8.91984 26.5535 7.04905 24.0591C5.17815 21.5646 4.00781 18.098 4.00781 14.25C4.00781 10.402 5.17815 6.93544 7.04905 4.44092C8.91984 1.94653 11.4703 0.445312 14.25 0.445312C17.0297 0.445312 19.5802 1.94653 21.451 4.44092C23.3218 6.93544 24.4922 10.402 24.4922 14.25Z" stroke="#1B2436" style="stroke:#1B2436;stroke:color(display-p3 0.1059 0.1412 0.2118);stroke-opacity:1;" stroke-width="0.890625"/>
<circle cx="14.25" cy="14.25" r="13.8047" stroke="#1B2436" style="stroke:#1B2436;stroke:color(display-p3 0.1059 0.1412 0.2118);stroke-opacity:1;" stroke-width="0.890625"/>
<path d="M14.25 17.3672C10.3404 17.3672 6.8159 16.9706 4.28173 16.3371C3.01122 16.0194 2.01465 15.6483 1.34642 15.2533C0.64839 14.8407 0.445312 14.4872 0.445312 14.25C0.445312 14.0128 0.64839 13.6593 1.34642 13.2467C2.01465 12.8517 3.01122 12.4806 4.28173 12.1629C6.8159 11.5294 10.3404 11.1328 14.25 11.1328C18.1596 11.1328 21.6841 11.5294 24.2183 12.1629C25.4888 12.4806 26.4854 12.8517 27.1536 13.2467C27.8516 13.6593 28.0547 14.0128 28.0547 14.25C28.0547 14.4872 27.8516 14.8407 27.1536 15.2533C26.4854 15.6483 25.4888 16.0194 24.2183 16.3371C21.6841 16.9706 18.1596 17.3672 14.25 17.3672Z" stroke="#1B2436" style="stroke:#1B2436;stroke:color(display-p3 0.1059 0.1412 0.2118);stroke-opacity:1;" stroke-width="0.890625"/>
<path d="M14.25 24.4922C10.402 24.4922 6.93544 23.3218 4.44092 21.451C1.94652 19.5802 0.445312 17.0297 0.445312 14.25C0.445312 11.4703 1.94653 8.91984 4.44092 7.04905C6.93544 5.17815 10.402 4.00781 14.25 4.00781C18.098 4.00781 21.5646 5.17815 24.0591 7.04905C26.5535 8.91984 28.0547 11.4703 28.0547 14.25C28.0547 17.0297 26.5535 19.5802 24.0591 21.451C21.5646 23.3218 18.098 24.4922 14.25 24.4922Z" stroke="#1B2436" style="stroke:#1B2436;stroke:color(display-p3 0.1059 0.1412 0.2118);stroke-opacity:1;" stroke-width="0.890625"/>
</svg>
