<svg width="22" height="21" viewBox="0 0 22 21" fill="none" xmlns="http://www.w3.org/2000/svg">
<path d="M14 20V12.6C14 12.0399 14 11.7599 13.891 11.546C13.7951 11.3578 13.6422 11.2049 13.454 11.109C13.2401 11 12.9601 11 12.4 11H9.6C9.03995 11 8.75992 11 8.54601 11.109C8.35785 11.2049 8.20487 11.3578 8.109 11.546C8 11.7599 8 12.0399 8 12.6V20M21 8.5L11.96 1.72C11.6157 1.46181 11.4436 1.33271 11.2546 1.28294C11.0877 1.23902 10.9123 1.23902 10.7454 1.28295C10.5564 1.33271 10.3843 1.46181 10.04 1.72L1 8.5M19 7V16.8C19 17.9201 19 18.4802 18.782 18.908C18.5903 19.2843 18.2843 19.5903 17.908 19.782C17.4802 20 16.9201 20 15.8 20H6.2C5.0799 20 4.51985 20 4.09202 19.782C3.7157 19.5903 3.40974 19.2843 3.21799 18.908C3 18.4802 3 17.9201 3 16.8V7L9.08 2.44C9.76852 1.92361 10.1128 1.66542 10.4909 1.56589C10.8246 1.47804 11.1754 1.47804 11.5091 1.56589C11.8872 1.66542 12.2315 1.92361 12.92 2.44L19 7Z" stroke="#18181B" style="stroke:#18181B;stroke:color(display-p3 0.0941 0.0941 0.1059);stroke-opacity:1;" stroke-linecap="round" stroke-linejoin="round"/>
</svg>
