<svg width="25" height="22" viewBox="0 0 25 22" fill="none" xmlns="http://www.w3.org/2000/svg">
<path d="M14.1045 12.3565C14.2961 12.4042 14.3991 12.5943 14.3245 12.7625L10.511 21.3699C10.4686 21.4658 10.3755 21.5352 10.2643 21.5541L8.03287 21.9323C7.79267 21.973 7.58848 21.7702 7.6527 21.5547L10.5633 11.7884C10.6114 11.6269 10.7936 11.5317 10.9702 11.5757L14.1045 12.3565Z" fill="#1B2436" style="fill:#1B2436;fill:color(display-p3 0.1059 0.1412 0.2118);fill-opacity:1;"/>
<path d="M14.1208 10.1435C14.3125 10.0958 14.4155 9.90575 14.3409 9.73745L10.5274 1.13008C10.4849 1.03421 10.3919 0.96477 10.2806 0.945916L8.04921 0.567748C7.80901 0.527039 7.60483 0.729829 7.66905 0.945318L10.5796 10.7116C10.6278 10.8731 10.8099 10.9683 10.9865 10.9243L14.1208 10.1435Z" fill="#1B2436" style="fill:#1B2436;fill:color(display-p3 0.1059 0.1412 0.2118);fill-opacity:1;"/>
<path d="M2.90475 5.93634C2.98106 5.95942 3.03935 6.01633 3.05954 6.08746L4.44157 10.9569C4.45164 10.9923 4.45169 11.0296 4.44172 11.0651L3.05841 15.9901C3.03886 16.0597 2.98282 16.1159 2.90883 16.14L0.379527 16.9669C0.206253 17.0236 0.0316354 16.8857 0.0676768 16.7208L1.30568 11.0538C1.31185 11.0255 1.31179 10.9964 1.30548 10.9682L0.0674563 5.41963C0.0310935 5.25666 0.201031 5.11866 0.373753 5.17089L2.90475 5.93634Z" fill="#1B2436" style="fill:#1B2436;fill:color(display-p3 0.1059 0.1412 0.2118);fill-opacity:1;"/>
<path d="M22.8248 9.03079C24.0261 9.03079 25 9.92112 25 11.0194C25 12.1177 24.0261 13.008 22.8248 13.008L3.2485 13.008L3.2485 9.03079L22.8248 9.03079Z" fill="#1B2436" style="fill:#1B2436;fill:color(display-p3 0.1059 0.1412 0.2118);fill-opacity:1;"/>
</svg>
